HIERARCHY
ROOT root
{
	OFFSET 0.000000 0.000000 0.000000
	CHANNELS 6 Xposition Yposition Zposition Zrotation Yrotation Xrotation
	JOINT lhip
	{
		OFFSET 0.058581 -0.082280 -0.017664
		CHANNELS 3 Zrotation Yrotation Xrotation
		JOINT lknee
		{
			OFFSET 0.043451 -0.386469 0.008037
			CHANNELS 3 Zrotation Yrotation Xrotation
			JOINT lankle
			{
				OFFSET -0.014790 -0.426874 -0.037428
				CHANNELS 3 Zrotation Yrotation Xrotation
				JOINT ltoe
				{
					OFFSET 0.041054 -0.060286 0.122042
					CHANNELS 3 Zrotation Yrotation Xrotation
					End Site
					{
						OFFSET 0.000000 0.000000 0.000000
					}
				}
			}
		}
	}
	JOINT rhip
	{
		OFFSET -0.060310 -0.090513 -0.013543
		CHANNELS 3 Zrotation Yrotation Xrotation
		JOINT rknee
		{
			OFFSET -0.043257 -0.383688 -0.004843
			CHANNELS 3 Zrotation Yrotation Xrotation
			JOINT rankle
			{
				OFFSET 0.019056 -0.420046 -0.034562
				CHANNELS 3 Zrotation Yrotation Xrotation
				JOINT rtoe
				{
					OFFSET -0.034840 -0.062106 0.130323
					CHANNELS 3 Zrotation Yrotation Xrotation
					End Site
					{
						OFFSET 0.000000 0.000000 0.000000
					}
				}
			}
		}
	}
	JOINT lowerback
	{
		OFFSET 0.004439 0.124404 -0.038385
		CHANNELS 3 Zrotation Yrotation Xrotation
		JOINT upperback
		{
			OFFSET 0.004488 0.137956 0.026820
			CHANNELS 3 Zrotation Yrotation Xrotation
			JOINT chest
			{
				OFFSET -0.002265 0.056032 0.002855
				CHANNELS 3 Zrotation Yrotation Xrotation
				JOINT lowerneck
				{
					OFFSET -0.013390 0.211636 -0.033468
					CHANNELS 3 Zrotation Yrotation Xrotation
					JOINT upperneck
					{
						OFFSET 0.010113 0.088937 0.050410
						CHANNELS 3 Zrotation Yrotation Xrotation
						End Site
						{
							OFFSET 0.000000 0.000000 0.000000
						}
					}
				}
				JOINT lclavicle
				{
					OFFSET 0.071702 0.114000 -0.018898
					CHANNELS 3 Zrotation Yrotation Xrotation
					JOINT lshoulder
					{
						OFFSET 0.122921 0.045205 -0.019046
						CHANNELS 3 Zrotation Yrotation Xrotation
						JOINT lelbow
						{
							OFFSET 0.255332 -0.015649 -0.022946
							CHANNELS 3 Zrotation Yrotation Xrotation
							JOINT lwrist
							{
								OFFSET 0.265709 0.012698 -0.007375
								CHANNELS 3 Zrotation Yrotation Xrotation
								End Site
								{
									OFFSET 0.000000 0.000000 0.000000
								}
							}
						}
					}
				}
				JOINT rclavicle
				{
					OFFSET -0.082954 0.112472 -0.023707
					CHANNELS 3 Zrotation Yrotation Xrotation
					JOINT rshoulder
					{
						OFFSET -0.113228 0.046853 -0.008472
						CHANNELS 3 Zrotation Yrotation Xrotation
						JOINT relbow
						{
							OFFSET -0.260127 -0.014369 -0.031269
							CHANNELS 3 Zrotation Yrotation Xrotation
							JOINT rwrist
							{
								OFFSET -0.269108 0.006794 -0.006027
								CHANNELS 3 Zrotation Yrotation Xrotation
								End Site
								{
									OFFSET 0.000000 0.000000 0.000000
								}
							}
						}
					}
				}
			}
		}
	}
}
MOTION
Frames: 10
Frame Time: 0.033333
-0.842549 0.297752 1.030237 89.016299 -2.065009 85.553562 0.892248 -1.997396 -8.526271 -7.544438 1.916305 36.882635 1.318356 8.100956 -8.844965 0.000000 -0.000000 0.000000 -0.341332 -2.435961 -0.779214 2.252466 -0.381103 16.404006 2.365618 -3.238326 -10.511700 0.000000 -0.000000 0.000000 -1.160533 2.997922 13.268492 1.172846 -0.251505 -1.218547 0.640423 0.153956 3.805852 0.979171 7.780397 -8.282639 0.167026 1.925222 7.074662 -24.036710 6.752858 -0.301581 -58.872166 -9.838939 9.586205 9.422573 -37.153790 6.688784 -4.585440 -2.900946 -8.385750 29.243567 -1.969011 -0.796530 56.646603 8.790134 8.732999 -17.852616 10.204489 -15.562832 6.467505 -0.572047 -9.806372 
-0.820972 0.298105 1.027922 88.652995 -2.413394 85.571436 0.382703 -2.543184 -11.017184 -6.865841 2.214780 32.810862 1.756532 8.680995 -9.641405 0.000000 -0.000000 0.000000 -0.402311 -2.346032 0.390687 1.921896 0.635008 17.063918 2.229800 -3.679287 -11.913437 0.000000 -0.000000 0.000000 -1.569651 3.582598 13.122516 1.025479 -0.506817 -1.583213 0.497642 0.111306 3.956819 1.419844 7.938687 -8.294111 0.424980 1.388715 7.538085 -23.761090 6.531310 -0.134372 -58.840528 -10.142052 9.905411 9.658954 -38.588383 6.505583 -4.410897 -2.952347 -8.724424 29.182498 -1.787407 -1.033506 57.122430 9.112568 9.137048 -18.397647 11.191590 -15.677445 6.438251 -0.193818 -9.905895 
-0.800729 0.299163 1.025174 88.620764 -2.552511 85.641289 0.096435 -3.614865 -13.517082 -6.282194 2.531421 28.472351 1.818403 9.246123 -10.257009 0.000000 -0.000000 0.000000 -0.360176 -2.291831 1.587874 1.780501 1.452790 17.476533 1.945003 -4.369107 -13.318477 0.000000 -0.000000 0.000000 -1.685686 3.963010 13.401786 0.908228 -0.905102 -2.169022 0.364636 0.015473 4.065789 1.609167 8.288956 -8.786037 0.231385 1.118049 8.144021 -23.797431 6.298777 -0.446988 -58.558806 -10.335602 10.285203 9.443773 -39.508331 6.736047 -4.342172 -3.233203 -8.456185 29.214825 -1.851312 -1.389312 57.461680 9.393143 9.556347 -19.075491 12.208056 -15.900737 6.436910 0.054919 -9.831174 
-0.779456 0.300205 1.022227 88.429757 -2.645374 85.640808 -0.090374 -4.574302 -15.088329 -6.023987 1.988190 22.968482 1.617290 8.971355 -8.752913 0.000000 -0.000000 0.000000 -0.360299 -2.460440 3.138009 1.558496 2.222475 17.517980 1.607675 -4.601746 -14.225459 0.000000 -0.000000 0.000000 -1.858419 4.370647 13.338994 0.824757 -1.263593 -2.125772 0.257949 -0.007747 4.017629 1.849089 8.542820 -8.886164 0.294694 0.581989 8.063061 -23.903152 6.051489 -0.622146 -58.257732 -10.347860 10.757754 9.510911 -40.109021 6.660904 -4.102434 -3.239796 -8.473443 29.369331 -1.664962 -1.551720 57.558255 9.570472 9.917073 -19.604771 13.027719 -16.205409 6.238730 0.312857 -9.834235 
-0.757793 0.300954 1.018823 87.691960 -2.661434 85.887246 -0.073902 -4.756491 -16.187209 -5.458976 1.440278 16.717285 0.860828 8.208006 -6.117987 0.000000 -0.000000 0.000000 -0.359305 -2.500258 4.318600 1.390539 3.164039 17.721265 1.528657 -4.800067 -15.259754 0.000000 -0.000000 0.000000 -2.150900 4.993690 12.964939 0.763373 -1.303287 -1.875418 0.281889 0.069402 3.814151 2.013491 9.078154 -9.052183 0.557662 0.184157 8.286479 -23.907563 5.820204 -0.740598 -58.190813 -10.473005 11.070954 9.480887 -40.071344 6.680173 -4.146036 -3.386946 -8.164943 29.454503 -1.612258 -1.428096 57.551915 9.663233 10.195678 -20.066472 13.974478 -16.456284 6.252331 1.001657 -9.963262 
-0.736396 0.302680 1.015134 87.004550 -2.534571 86.499075 -0.052170 -4.919245 -17.085601 -4.614266 0.706077 9.618653 0.252133 8.289393 -3.977231 0.000000 -0.000000 0.000000 -0.330458 -2.425283 4.892770 1.335646 3.735211 18.352101 1.489319 -4.762403 -16.181290 0.000000 -0.000000 0.000000 -2.226198 5.291774 12.536425 0.663289 -1.201023 -2.060914 0.254938 0.092844 3.722679 2.321690 9.277250 -8.934486 0.486699 -0.376250 8.512809 -24.085369 5.992216 -0.996511 -58.260505 -10.334717 11.350394 9.824974 -39.596298 6.121747 -3.778503 -3.237942 -7.533781 29.467118 -1.737027 -1.435470 57.672189 9.839556 10.445468 -20.532135 14.350788 -16.617460 5.981812 1.343515 -9.533060 
-0.713549 0.304560 1.011405 86.196553 -2.298487 87.106236 -0.007212 -4.430691 -17.608916 -3.617191 -0.159476 3.472044 -0.360228 7.374780 -3.762278 0.000000 -0.000000 0.000000 -0.433060 -2.612482 5.729495 1.402491 4.373703 18.415157 1.726232 -4.485042 -16.501763 0.000000 -0.000000 0.000000 -2.259221 5.518685 12.005511 0.541011 -1.017591 -2.231233 0.275047 0.261681 3.542627 2.398835 9.929488 -8.673157 0.351329 -0.228185 8.744332 -24.172392 6.209930 -0.945145 -58.416390 -10.081664 11.295111 9.777750 -38.809175 5.959853 -3.718946 -3.057403 -7.397900 29.402540 -1.808816 -1.204709 57.676410 10.000614 10.514005 -20.865064 14.703947 -16.673673 5.754018 1.680039 -9.198146 
-0.689864 0.306819 1.007918 85.318508 -1.966188 87.772171 0.142721 -3.854145 -18.098884 -2.829820 -0.597593 -0.867260 -1.471935 6.627670 -3.944504 0.000000 -0.000000 0.000000 -0.445419 -2.672867 6.451540 1.331562 5.041459 18.767054 2.182795 -4.125327 -16.824403 0.000000 -0.000000 0.000000 -2.181129 5.609817 11.549466 0.451798 -0.906407 -2.482752 0.207596 0.522152 3.395082 2.770510 10.056958 -8.575787 0.381120 -0.518291 9.088522 -24.571270 6.618135 -1.248008 -58.257585 -9.590989 11.161787 9.624471 -37.621905 5.775072 -3.651200 -3.216602 -6.806427 29.273993 -1.974499 -1.265634 57.762587 10.020184 10.566079 -20.980893 14.869856 -16.729909 5.766417 2.332424 -8.991172 
-0.664986 0.309759 1.005078 84.267999 -1.932418 88.105232 0.331722 -3.978669 -18.938664 -2.972170 0.427707 0.232810 -1.156996 6.939432 -3.813094 0.000000 -0.000000 0.000000 -0.924241 -2.543189 7.046818 1.351965 5.918279 20.035609 2.692697 -3.668621 -17.058544 0.000000 -0.000000 0.000000 -2.404419 6.086888 11.207397 0.410075 -0.722416 -2.568845 0.085555 0.569347 3.469187 2.955192 10.314114 -8.781569 0.510562 -0.286664 9.386107 -24.863897 6.902719 -1.496668 -58.019931 -9.095498 10.979282 9.417105 -36.106095 5.812111 -3.779355 -3.434739 -6.211224 29.465112 -2.368612 -1.551730 57.447334 10.046575 10.753203 -21.004934 15.477688 -16.786628 5.981325 2.892380 -8.960918 
-0.637844 0.312706 1.002721 83.227854 -2.032567 88.187185 0.479613 -4.925390 -18.568116 -3.387392 0.043248 2.354175 -0.555952 7.204669 -3.288556 0.000000 -0.000000 0.000000 -1.538977 -2.268904 8.102727 1.277131 6.904338 21.079455 2.990236 -3.472982 -16.702322 0.000000 -0.000000 0.000000 -2.816924 6.699290 11.018753 0.396149 -0.673009 -2.414942 0.067903 0.591345 3.269638 3.373245 10.074564 -8.360966 0.643674 -0.056507 9.370913 -24.987125 7.132369 -1.293481 -57.980058 -8.343416 10.692404 9.498726 -34.783228 5.703594 -4.306906 -2.760332 -6.094774 29.430051 -2.500743 -1.333392 57.220330 9.785632 10.828361 -21.305357 16.201783 -16.777608 6.549003 3.208737 -8.879666 
